<?xml version="1.0" encoding="UTF-8" standalone="no"?>
<!-- Created with Inkscape (http://www.inkscape.org/) -->

<svg
   width="31.75" height="31.75px"
   viewBox="0 0 31.75 31.75"
   version="1.1"
   id="svg5"
   sodipodi:docname="drawing school logo.svg"
   inkscape:export-filename="drawing school logo.png"
   inkscape:export-xdpi="1557.1654"
   inkscape:export-ydpi="1557.1654"
   inkscape:version="1.2 (dc2aedaf03, 2022-05-15)"
   xmlns:inkscape="http://www.inkscape.org/namespaces/inkscape"
   xmlns:sodipodi="http://sodipodi.sourceforge.net/DTD/sodipodi-0.dtd"
   xmlns="http://www.w3.org/2000/svg"
   xmlns:svg="http://www.w3.org/2000/svg">
  <sodipodi:namedview
     id="namedview12"
     pagecolor="#ffffff"
     bordercolor="#666666"
     borderopacity="1.0"
     inkscape:showpageshadow="2"
     inkscape:pageopacity="0.0"
     inkscape:pagecheckerboard="0"
     inkscape:deskcolor="#d1d1d1"
     showgrid="false"
     inkscape:zoom="25.637795"
     inkscape:cx="15.894502"
     inkscape:cy="15.894502"
     inkscape:window-width="1920"
     inkscape:window-height="1001"
     inkscape:window-x="-9"
     inkscape:window-y="-9"
     inkscape:window-maximized="1"
     inkscape:current-layer="svg5" />
  <defs
     id="defs2" />
  <g
     id="layer1">
    <ellipse
       style="opacity:1;fill:none;fill-opacity:1;stroke:#000000;stroke-width:0.07646458;stroke-miterlimit:4;stroke-dasharray:none;stroke-opacity:1"
       id="path896"
       ry="15.274834"
       rx="15.360962"
       cy="15.790092"
       cx="15.991056" />
    <path
       style="opacity:1;fill:#faf805;fill-opacity:1;stroke:#000000;stroke-width:0.2682875;stroke-miterlimit:4;stroke-dasharray:none;stroke-opacity:1;stroke-linecap:square;paint-order:stroke fill markers;stroke-linejoin:round"
       id="path5772"
       d="M 30.703175,15.790094 A 14.736603,14.732355 0 0 1 16.047847,30.522225 14.736603,14.732355 0 0 1 1.2308655,15.952596 14.736603,14.732355 0 0 1 15.722755,1.0597558 14.736603,14.732355 0 0 1 30.699589,15.465111" />
    <path
       style="opacity:1;fill:#ffffff;fill-opacity:1;stroke:#000000;stroke-width:0.28495625;stroke-linecap:square;stroke-linejoin:round;stroke-miterlimit:4;stroke-dasharray:none;stroke-opacity:1;paint-order:stroke fill markers"
       id="path6352"
       d="M 27.155287,16.106943 A 11.189643,11.267898 0 0 1 16.027357,27.374669 11.189643,11.267898 0 0 1 4.7766817,16.231231 11.189643,11.267898 0 0 1 15.780512,4.8405878 11.189643,11.267898 0 0 1 27.152564,15.858383" />
    <rect
       style="opacity:1;fill:#40add6;fill-opacity:1;stroke:#000000;stroke-width:0.0254853;stroke-linecap:square;stroke-linejoin:round;stroke-miterlimit:4;stroke-dasharray:none;stroke-opacity:1;paint-order:stroke fill markers"
       id="rect9974"
       width="12.805302"
       height="18.432318"
       x="9.5884056"
       y="6.9471536"
       ry="6.1403536e-17" />
    <rect
       style="opacity:1;fill:#6b2626;fill-opacity:1;stroke:#000000;stroke-width:0.0264583;stroke-linecap:square;stroke-linejoin:round;stroke-miterlimit:4;stroke-dasharray:none;stroke-opacity:1;paint-order:stroke fill markers"
       id="rect10768"
       width="12.804815"
       height="5.8571749"
       x="9.588892"
       y="19.522297"
       ry="6.1403437e-17" />
    <path
       style="fill:none;stroke:#ffffff;stroke-width:0.167069;stroke-linecap:butt;stroke-linejoin:miter;stroke-miterlimit:4;stroke-dasharray:none;stroke-opacity:1"
       d="m 9.5902014,21.488087 c 0.078971,-0.02219 0.1671124,-0.04043 0.236914,-0.06658 0.00586,-0.0022 0.047314,-0.07985 0.059228,-0.08878 0.035537,-0.02663 0.1421486,-0.03995 0.1776856,-0.06658 0.0089,-0.0066 -0.01396,-0.01696 0,-0.0222 0.02792,-0.01046 0.09054,0.01046 0.118458,0 0.122545,-0.04592 -0.1872672,0.0018 0.05923,-0.04439 0.01766,-0.0033 0.04157,0.0033 0.05923,0 0.02497,-0.0047 0.03426,-0.01751 0.05923,-0.02219 0.01869,-0.0035 0.224102,-0.0048 0.236914,0 0.02307,0.0086 0,0.07523 0,0.08877 0,0.02801 -0.0079,0.285549 0,0.288519 0.01396,0.0052 0.04157,-0.0033 0.05923,0 0.02497,0.0047 0.03274,0.01889 0.05923,0.02219 0.05619,0.007 0.118456,0 0.177685,0 0.06567,0 0.180126,0.01064 0.236914,0 0.04995,-0.0094 0.09349,-0.02567 0.118457,-0.04439 0.0089,-0.0066 -0.0089,-0.01558 0,-0.02219 0.01248,-0.0094 0.04674,-0.01284 0.05923,-0.0222 0.0089,-0.0066 -0.0089,-0.01558 0,-0.02219 0.01249,-0.0094 0.04674,-0.01284 0.05923,-0.0222 0.02649,-0.01985 -0.022,-0.04597 0,-0.06658 0.02644,-0.02477 0.08662,-0.04272 0.118457,-0.06658 0.0089,-0.0066 -0.0063,-0.01518 0,-0.02219 0.01396,-0.01569 0.04852,-0.02834 0.05923,-0.04439 0.0096,-0.01435 -0.01248,-0.03035 0,-0.04439 0.02164,-0.02432 0.139282,-0.045 0.177686,-0.06658 0.02449,-0.01376 0.02802,-0.03269 0.05923,-0.04439 0.01367,-0.0051 0.192899,-0.03869 0.236915,-0.02219 0.01396,0.0052 -0.0063,0.01517 0,0.02219 0.01396,0.01569 0.03474,0.03063 0.05923,0.04439 0.01548,0.0087 0.0504,0.01227 0.05923,0.0222 0.04169,0.04687 0,0.184391 0,0.244131 0,0.0091 -0.01568,0.06071 0,0.06658 0.02738,0.01026 0.141925,-0.0067 0.177686,0 0.02497,0.0047 0.03426,0.01751 0.05923,0.02219 0.01766,0.0033 0.04526,-0.0052 0.05923,0 0.01396,0.0052 -0.01396,0.01696 0,0.0222 0.0085,0.0032 0.231047,0.0029 0.236914,0 0.26098,-0.02235 0.06261,-0.09131 0.118457,-0.133162 0.0089,-0.0066 0.05299,0.007 0.05923,0 0,-0.157414 -0.04188,-0.013 0.05923,-0.08878 0.04599,-0.03447 -0.03245,-0.09669 0,-0.133162 0.06162,-0.06927 0.03949,0.0074 0.118457,-0.0222 0.01396,-0.0052 -0.01396,-0.01696 0,-0.02219 0.0095,-0.0036 0.214596,-0.0028 0.236913,0 0.05298,0.0066 0.08748,0.02698 0.118457,0.04439 0.133868,0.07524 0.0052,0.163038 0.05923,0.244131 0.09974,0.149491 9.29e-4,3.47e-4 0.118457,0.04439 0.02792,0.01046 -0.02792,0.03393 0,0.04439 0.06713,0.02516 0.187832,0.0298 0.236914,0.06658 0.0089,0.0066 -0.01396,0.01696 0,0.02219 0.01568,0.0059 0.153298,0 0.177685,0 0.135546,0 0.186462,-0.01699 0.296143,-0.04439 0.0541,-0.01351 0.143735,-0.01894 0.177686,-0.04439 0.0089,-0.0066 -0.01396,-0.01696 0,-0.0222 0.01396,-0.0052 0.0504,0.0066 0.05923,0 0.01766,-0.01324 -0.01249,-0.03035 0,-0.04439 0.0089,-0.0099 0.0504,-0.01227 0.05923,-0.0222 0.01248,-0.01403 -0.0096,-0.03003 0,-0.04439 0.04085,-0.06123 0.222764,-0.18467 0.35537,-0.221938 0.03532,-0.0099 0.08725,-0.0105 0.118457,-0.02219 0.01396,-0.0052 -0.01396,-0.01696 0,-0.0222 0.05683,-0.02129 0.260796,0.01778 0.296142,0.0222 0.01873,0.0024 0.05299,-0.007 0.05923,0 0.01687,0.01896 0.02442,0.216687 0,0.24413 -0.01396,0.01569 -0.04526,0.02869 -0.05923,0.04439 -0.0063,0.007 0.0089,0.01558 0,0.0222 -0.01248,0.0094 -0.04674,0.01284 -0.05923,0.02219 -0.0108,0.0081 -0.02398,0.101981 0,0.110969 0.01396,0.0052 0.04526,-0.0052 0.05923,0 0.01396,0.0052 -0.01396,0.01696 0,0.02219 0.01396,0.0052 0.04157,-0.0033 0.05923,0 0.04995,0.0094 0.06851,0.03503 0.118457,0.04439 0.02733,0.0051 0.209578,0.0051 0.236914,0 0.02497,-0.0047 0.03426,-0.01751 0.05923,-0.0222 0.01766,-0.0033 0.04828,0.0062 0.05923,0 0.03463,-0.01946 0.03131,-0.04566 0.05923,-0.06658 0.09031,-0.06768 0.04696,0.04059 0.118457,-0.06658 0.0096,-0.01435 -0.01249,-0.03035 0,-0.04439 0.0089,-0.0099 0.03949,-0.01479 0.05923,-0.02219 0.01974,-0.0148 0.04852,-0.02834 0.05923,-0.04439 0.01915,-0.02871 -0.02497,-0.0607 0,-0.08877 0.01966,-0.0221 0.0988,-0.04448 0.118457,-0.06658 0.01248,-0.01404 -0.01249,-0.03035 0,-0.04439 0.02713,-0.03049 0.353124,-0.03371 0.414598,-0.02219 0.0097,0.0018 0,0.09964 0,0.133162 0,0.04913 -0.0377,0.157366 0,0.199744 0.0086,0.0096 0.104485,0.05611 0.118457,0.06658 0.01766,0.01324 -0.02792,0.03393 0,0.04439 0.01396,0.0052 0.04526,-0.0052 0.05923,0 0.01396,0.0052 -0.01396,0.01696 0,0.0222 0.01396,0.0052 0.04526,-0.0052 0.05923,0 0.01396,0.0052 0,0.0148 0,0.0222 0.01974,0 0.04157,-0.0033 0.05923,0 0.04995,0.0094 0.06548,0.03777 0.118457,0.04439 0.165607,0.02069 0.311377,-0.03108 0.355371,-0.08878 0.02594,-0.03403 -0.03334,-0.09569 0,-0.133163 0.01396,-0.01569 0.04852,-0.02834 0.05923,-0.04439 0.0096,-0.01435 -0.01248,-0.03035 0,-0.04439 0.0089,-0.0099 0.0504,-0.01227 0.05923,-0.0222 0.02497,-0.02807 -0.02497,-0.0607 0,-0.08878 0.0089,-0.0099 0.04674,-0.01284 0.05923,-0.02219 0.0089,-0.0066 -0.01396,-0.01696 0,-0.0222 0.01396,-0.0052 0.04526,0.0052 0.05923,0 0.01396,-0.0052 -0.01396,-0.01696 0,-0.02219 0.01396,-0.0052 0.04157,0.0033 0.05923,0 0.07214,-0.01352 0.228054,-0.06824 0.355371,-0.04439 0.127098,0.02381 0.09261,0.07223 0.118457,0.110969 0.01514,0.02269 0.0504,0.04342 0.05923,0.06658 0.01396,0.03662 -0.03121,0.07588 0,0.110969 0.01396,0.01569 0.04852,0.02834 0.05923,0.04439 0.01437,0.02153 -0.01873,0.04553 0,0.06658 0.01396,0.01569 0.04527,0.0287 0.05923,0.04439 0.01248,0.01403 -0.02792,0.03393 0,0.04439 0.01396,0.0052 0.04526,-0.0052 0.05923,0 0.01396,0.0052 -0.01396,0.01696 0,0.0222 0.01396,0.0052 0.04157,-0.0033 0.05923,0 0.02497,0.0047 0.03426,0.01751 0.05923,0.02219 0.196686,0.03685 0.281554,-0.100363 0.296143,-0.133162 0.0065,-0.01459 -0.0096,-0.03003 0,-0.04439 0.02141,-0.0321 0.09705,-0.05668 0.118456,-0.08878 0.0096,-0.01435 -0.0096,-0.03003 0,-0.04439 -0.0357,-0.04017 0.09595,-0.04128 0.118456,-0.06658 0.0237,-0.02663 -0.02369,-0.06214 0,-0.08877 0.06288,-0.07069 0.265325,-0.137012 0.473829,-0.110969 0.01991,0.0025 0.165364,0.02592 0.177685,0.04439 0.01759,0.02637 0,0.07911 0,0.110969 0,0.08138 0,0.162754 0,0.244131 0,0.02219 -0.01873,0.04553 0,0.06658 0.01766,0.01985 0.09349,0.02567 0.118457,0.04439 0.0089,0.0066 -0.01396,0.01696 0,0.0222 0.01396,0.0052 0.04157,-0.0033 0.05923,0 0.02497,0.0047 0.03426,0.01751 0.05923,0.02219 0.04918,0.0092 0.180764,0 0.236914,0 0.05616,0 0.187726,0.0092 0.236914,0 0.02369,-0.0044 0.171746,-0.102066 0.177686,-0.110969 0.0096,-0.01435 -0.0096,-0.03003 0,-0.04439 0.02141,-0.0321 0.09705,-0.05668 0.118456,-0.08878 0.0096,-0.01435 -0.0077,-0.02988 0,-0.04439 0.02449,-0.04588 0.09397,-0.08728 0.118457,-0.133162 0.0077,-0.01451 -0.01248,-0.03035 0,-0.04439 0.0089,-0.0099 0.04674,-0.01284 0.05923,-0.0222 0.05038,-0.03775 -0.05746,-0.04505 0.05923,-0.08877 0.01659,-0.0062 0.271912,-0.0045 0.296143,0 0.04995,0.0094 0.09349,0.02567 0.118457,0.04439 0.0089,0.0066 -0.0089,0.01558 0,0.0222 0.01248,0.0094 0.04674,0.01284 0.05923,0.02219 0.0089,0.0066 -0.0089,0.01558 0,0.0222 0.03554,0.02663 0.142148,0.03995 0.177686,0.06658 0.03037,0.02276 0.02886,0.06602 0.05923,0.08877 0.01249,0.0094 0.04674,0.01284 0.05923,0.02219 0.0089,0.0066 -0.0063,0.01517 0,0.0222 0.01396,0.01569 0.04526,0.0287 0.05923,0.04439 0.01249,0.01403 -0.01766,0.03115 0,0.04439 0.03449,0.02585 0.08397,0.04073 0.118457,0.06658 0.0089,0.0066 -0.01396,0.01696 0,0.02219 0.01396,0.0052 0.04526,-0.0052 0.05923,0 0.01396,0.0052 -0.01396,0.01696 0,0.0222 0.01396,0.0052 0.04526,-0.0052 0.05923,0 0.01396,0.0052 -0.01396,0.01696 0,0.02219 0.01396,0.0052 0.04157,-0.0033 0.05923,0 0.02497,0.0047 0.03426,0.01751 0.05923,0.0222 0.07038,0.01319 0.434001,0 0.533057,0"
       id="path11798" />
    <path
       style="fill:none;stroke:#ffffff;stroke-width:0.167069;stroke-linecap:butt;stroke-linejoin:miter;stroke-miterlimit:4;stroke-dasharray:none;stroke-opacity:1"
       d="m 9.4753644,23.382898 c 0.078971,-0.02219 0.1671124,-0.04043 0.236914,-0.06658 0.00586,-0.0022 0.047314,-0.07985 0.059228,-0.08878 0.035537,-0.02663 0.1421486,-0.03995 0.1776856,-0.06658 0.0089,-0.0066 -0.01396,-0.01696 0,-0.0222 0.02792,-0.01046 0.09054,0.01046 0.118458,0 0.122545,-0.04592 -0.1872672,0.0018 0.05923,-0.04439 0.01766,-0.0033 0.04157,0.0033 0.05923,0 0.02497,-0.0047 0.03426,-0.01751 0.05923,-0.02219 0.01869,-0.0035 0.224102,-0.0048 0.236914,0 0.02307,0.0086 0,0.07523 0,0.08877 0,0.02801 -0.0079,0.285549 0,0.288519 0.01396,0.0052 0.04157,-0.0033 0.05923,0 0.02497,0.0047 0.03274,0.01889 0.05923,0.02219 0.05619,0.007 0.118456,0 0.177685,0 0.06567,0 0.180126,0.01064 0.236914,0 0.04995,-0.0094 0.09349,-0.02567 0.118457,-0.04439 0.0089,-0.0066 -0.0089,-0.01558 0,-0.02219 0.01248,-0.0094 0.04674,-0.01284 0.05923,-0.0222 0.0089,-0.0066 -0.0089,-0.01558 0,-0.02219 0.01249,-0.0094 0.04674,-0.01284 0.05923,-0.0222 0.02649,-0.01985 -0.022,-0.04597 0,-0.06658 0.02644,-0.02477 0.08662,-0.04272 0.118457,-0.06658 0.0089,-0.0066 -0.0063,-0.01518 0,-0.02219 0.01396,-0.01569 0.04852,-0.02834 0.05923,-0.04439 0.0096,-0.01435 -0.01248,-0.03035 0,-0.04439 0.02164,-0.02432 0.139282,-0.045 0.177686,-0.06658 0.02449,-0.01376 0.02802,-0.03269 0.05923,-0.04439 0.01367,-0.0051 0.192899,-0.03869 0.236915,-0.02219 0.01396,0.0052 -0.0063,0.01517 0,0.02219 0.01396,0.01569 0.03474,0.03063 0.05923,0.04439 0.01548,0.0087 0.0504,0.01227 0.05923,0.0222 0.04169,0.04687 0,0.184391 0,0.244131 0,0.0091 -0.01568,0.06071 0,0.06658 0.02738,0.01026 0.141925,-0.0067 0.177686,0 0.02497,0.0047 0.03426,0.01751 0.05923,0.02219 0.01766,0.0033 0.04526,-0.0052 0.05923,0 0.01396,0.0052 -0.01396,0.01696 0,0.0222 0.0085,0.0032 0.231047,0.0029 0.236914,0 0.26098,-0.02235 0.06261,-0.09131 0.118457,-0.133162 0.0089,-0.0066 0.05299,0.007 0.05923,0 0,-0.157414 -0.04188,-0.013 0.05923,-0.08878 0.04599,-0.03447 -0.03245,-0.09669 0,-0.133162 0.06162,-0.06927 0.03949,0.0074 0.118457,-0.0222 0.01396,-0.0052 -0.01396,-0.01696 0,-0.02219 0.0095,-0.0036 0.214596,-0.0028 0.236913,0 0.05298,0.0066 0.08748,0.02698 0.118457,0.04439 0.133868,0.07524 0.0052,0.163038 0.05923,0.244131 0.09974,0.149491 9.29e-4,3.47e-4 0.118457,0.04439 0.02792,0.01046 -0.02792,0.03393 0,0.04439 0.06713,0.02516 0.187832,0.0298 0.236914,0.06658 0.0089,0.0066 -0.01396,0.01696 0,0.02219 0.01568,0.0059 0.153298,0 0.177685,0 0.135546,0 0.186462,-0.01699 0.296143,-0.04439 0.0541,-0.01351 0.143735,-0.01894 0.177686,-0.04439 0.0089,-0.0066 -0.01396,-0.01696 0,-0.0222 0.01396,-0.0052 0.0504,0.0066 0.05923,0 0.01766,-0.01324 -0.01249,-0.03035 0,-0.04439 0.0089,-0.0099 0.0504,-0.01227 0.05923,-0.0222 0.01248,-0.01403 -0.0096,-0.03003 0,-0.04439 0.04085,-0.06123 0.222764,-0.18467 0.35537,-0.221938 0.03532,-0.0099 0.08725,-0.0105 0.118457,-0.02219 0.01396,-0.0052 -0.01396,-0.01696 0,-0.0222 0.05683,-0.02129 0.260796,0.01778 0.296142,0.0222 0.01873,0.0024 0.05299,-0.007 0.05923,0 0.01687,0.01896 0.02442,0.216687 0,0.24413 -0.01396,0.01569 -0.04526,0.02869 -0.05923,0.04439 -0.0063,0.007 0.0089,0.01558 0,0.0222 -0.01248,0.0094 -0.04674,0.01284 -0.05923,0.02219 -0.0108,0.0081 -0.02398,0.101981 0,0.110969 0.01396,0.0052 0.04526,-0.0052 0.05923,0 0.01396,0.0052 -0.01396,0.01696 0,0.02219 0.01396,0.0052 0.04157,-0.0033 0.05923,0 0.04995,0.0094 0.06851,0.03503 0.118457,0.04439 0.02733,0.0051 0.209578,0.0051 0.236914,0 0.02497,-0.0047 0.03426,-0.01751 0.05923,-0.0222 0.01766,-0.0033 0.04828,0.0062 0.05923,0 0.03463,-0.01946 0.03131,-0.04566 0.05923,-0.06658 0.09031,-0.06768 0.04696,0.04059 0.118457,-0.06658 0.0096,-0.01435 -0.01249,-0.03035 0,-0.04439 0.0089,-0.0099 0.03949,-0.01479 0.05923,-0.02219 0.01974,-0.0148 0.04852,-0.02834 0.05923,-0.04439 0.01915,-0.02871 -0.02497,-0.0607 0,-0.08877 0.01966,-0.0221 0.0988,-0.04448 0.118457,-0.06658 0.01248,-0.01404 -0.01249,-0.03035 0,-0.04439 0.02713,-0.03049 0.353124,-0.03371 0.414598,-0.02219 0.0097,0.0018 0,0.09964 0,0.133162 0,0.04913 -0.0377,0.157366 0,0.199744 0.0086,0.0096 0.104485,0.05611 0.118457,0.06658 0.01766,0.01324 -0.02792,0.03393 0,0.04439 0.01396,0.0052 0.04526,-0.0052 0.05923,0 0.01396,0.0052 -0.01396,0.01696 0,0.0222 0.01396,0.0052 0.04526,-0.0052 0.05923,0 0.01396,0.0052 0,0.0148 0,0.0222 0.01974,0 0.04157,-0.0033 0.05923,0 0.04995,0.0094 0.06548,0.03777 0.118457,0.04439 0.165607,0.02069 0.311377,-0.03108 0.355371,-0.08878 0.02594,-0.03403 -0.03334,-0.09569 0,-0.133163 0.01396,-0.01569 0.04852,-0.02834 0.05923,-0.04439 0.0096,-0.01435 -0.01248,-0.03035 0,-0.04439 0.0089,-0.0099 0.0504,-0.01227 0.05923,-0.0222 0.02497,-0.02807 -0.02497,-0.0607 0,-0.08878 0.0089,-0.0099 0.04674,-0.01284 0.05923,-0.02219 0.0089,-0.0066 -0.01396,-0.01696 0,-0.0222 0.01396,-0.0052 0.04526,0.0052 0.05923,0 0.01396,-0.0052 -0.01396,-0.01696 0,-0.02219 0.01396,-0.0052 0.04157,0.0033 0.05923,0 0.07214,-0.01352 0.228054,-0.06824 0.355371,-0.04439 0.127098,0.02381 0.09261,0.07223 0.118457,0.110969 0.01514,0.02269 0.0504,0.04342 0.05923,0.06658 0.01396,0.03662 -0.03121,0.07588 0,0.110969 0.01396,0.01569 0.04852,0.02834 0.05923,0.04439 0.01437,0.02153 -0.01873,0.04553 0,0.06658 0.01396,0.01569 0.04527,0.0287 0.05923,0.04439 0.01248,0.01403 -0.02792,0.03393 0,0.04439 0.01396,0.0052 0.04526,-0.0052 0.05923,0 0.01396,0.0052 -0.01396,0.01696 0,0.0222 0.01396,0.0052 0.04157,-0.0033 0.05923,0 0.02497,0.0047 0.03426,0.01751 0.05923,0.02219 0.196686,0.03685 0.281554,-0.100363 0.296143,-0.133162 0.0065,-0.01459 -0.0096,-0.03003 0,-0.04439 0.02141,-0.0321 0.09705,-0.05668 0.118456,-0.08878 0.0096,-0.01435 -0.0096,-0.03003 0,-0.04439 -0.0357,-0.04017 0.09595,-0.04128 0.118456,-0.06658 0.0237,-0.02663 -0.02369,-0.06214 0,-0.08877 0.06288,-0.07069 0.265325,-0.137012 0.473829,-0.110969 0.01991,0.0025 0.165364,0.02592 0.177685,0.04439 0.01759,0.02637 0,0.07911 0,0.110969 0,0.08138 0,0.162754 0,0.244131 0,0.02219 -0.01873,0.04553 0,0.06658 0.01766,0.01985 0.09349,0.02567 0.118457,0.04439 0.0089,0.0066 -0.01396,0.01696 0,0.0222 0.01396,0.0052 0.04157,-0.0033 0.05923,0 0.02497,0.0047 0.03426,0.01751 0.05923,0.02219 0.04918,0.0092 0.180764,0 0.236914,0 0.05616,0 0.187726,0.0092 0.236914,0 0.02369,-0.0044 0.171746,-0.102066 0.177686,-0.110969 0.0096,-0.01435 -0.0096,-0.03003 0,-0.04439 0.02141,-0.0321 0.09705,-0.05668 0.118456,-0.08878 0.0096,-0.01435 -0.0077,-0.02988 0,-0.04439 0.02449,-0.04588 0.09397,-0.08728 0.118457,-0.133162 0.0077,-0.01451 -0.01248,-0.03035 0,-0.04439 0.0089,-0.0099 0.04674,-0.01284 0.05923,-0.0222 0.05038,-0.03775 -0.05746,-0.04505 0.05923,-0.08877 0.01659,-0.0062 0.271912,-0.0045 0.296143,0 0.04995,0.0094 0.09349,0.02567 0.118457,0.04439 0.0089,0.0066 -0.0089,0.01558 0,0.0222 0.01248,0.0094 0.04674,0.01284 0.05923,0.02219 0.0089,0.0066 -0.0089,0.01558 0,0.0222 0.03554,0.02663 0.142148,0.03995 0.177686,0.06658 0.03037,0.02276 0.02886,0.06602 0.05923,0.08877 0.01249,0.0094 0.04674,0.01284 0.05923,0.02219 0.0089,0.0066 -0.0063,0.01517 0,0.0222 0.01396,0.01569 0.04526,0.0287 0.05923,0.04439 0.01249,0.01403 -0.01766,0.03115 0,0.04439 0.03449,0.02585 0.08397,0.04073 0.118457,0.06658 0.0089,0.0066 -0.01396,0.01696 0,0.02219 0.01396,0.0052 0.04526,-0.0052 0.05923,0 0.01396,0.0052 -0.01396,0.01696 0,0.0222 0.01396,0.0052 0.04526,-0.0052 0.05923,0 0.01396,0.0052 -0.01396,0.01696 0,0.02219 0.01396,0.0052 0.04157,-0.0033 0.05923,0 0.02497,0.0047 0.03426,0.01751 0.05923,0.0222 0.07038,0.01319 0.434001,0 0.533057,0"
       id="path11934" />
  </g>
</svg>
