<svg id="visual" viewBox="0 0 900 600" width="900" height="600" xmlns="http://www.w3.org/2000/svg" xmlns:xlink="http://www.w3.org/1999/xlink" version="1.1"><g stroke-width="1" stroke-linejoin="bevel"><path d="M475 300.1L485 331L536 288.9Z" fill="#0f458d" stroke="#0f458d"></path><path d="M536 288.9L492 269L475 300.1Z" fill="#1a1e2b" stroke="#1a1e2b"></path><path d="M485 331L535 342L536 288.9Z" fill="#004b9c" stroke="#004b9c"></path><path d="M485 331L536 344.9L535 342Z" fill="#0f458d" stroke="#0f458d"></path><path d="M596 252.1L546 272.1L622 331.9Z" fill="#0f458d" stroke="#0f458d"></path><path d="M546 272.1L536 288.9L622 331.9Z" fill="#1e2e53" stroke="#1e2e53"></path><path d="M536 288.9L546 272.1L492 269Z" fill="#1b396f" stroke="#1b396f"></path><path d="M489 238.1L466 257.3L492 269Z" fill="#1b396f" stroke="#1b396f"></path><path d="M492 269L466 257.3L475 300.1Z" fill="#17181f" stroke="#17181f"></path><path d="M542 228.3L489 238.1L492 269Z" fill="#1d3461" stroke="#1d3461"></path><path d="M415 296.9L469 368.9L485 331Z" fill="#1d3461" stroke="#1d3461"></path><path d="M485 331L479 378.7L536 344.9Z" fill="#1e2e53" stroke="#1e2e53"></path><path d="M415 296.9L485 331L475 300.1Z" fill="#0f458d" stroke="#0f458d"></path><path d="M469 368.9L479 378.7L485 331Z" fill="#17181f" stroke="#17181f"></path><path d="M546 272.1L542 228.3L492 269Z" fill="#131313" stroke="#131313"></path><path d="M469 368.9L480 391.7L479 378.7Z" fill="#17181f" stroke="#17181f"></path><path d="M479 378.7L548 386.6L536 344.9Z" fill="#1a1e2b" stroke="#1a1e2b"></path><path d="M480 391.7L548 386.6L479 378.7Z" fill="#131313" stroke="#131313"></path><path d="M622 331.9L536 288.9L535 342Z" fill="#0f458d" stroke="#0f458d"></path><path d="M554 202.4L542 221.3L542 228.3Z" fill="#0f458d" stroke="#0f458d"></path><path d="M542 228.3L542 221.3L489 238.1Z" fill="#173f7e" stroke="#173f7e"></path><path d="M442 226.1L415 296.9L466 257.3Z" fill="#1c2338" stroke="#1c2338"></path><path d="M466 257.3L415 296.9L475 300.1Z" fill="#1e2845" stroke="#1e2845"></path><path d="M469 368.9L473 409.6L480 391.7Z" fill="#1c2338" stroke="#1c2338"></path><path d="M622 331.9L535 342L536 344.9Z" fill="#1e2e53" stroke="#1e2e53"></path><path d="M546 272.1L596 252.1L542 228.3Z" fill="#1a1e2b" stroke="#1a1e2b"></path><path d="M441 211.4L442 226.1L489 238.1Z" fill="#1c2338" stroke="#1c2338"></path><path d="M489 238.1L442 226.1L466 257.3Z" fill="#1b396f" stroke="#1b396f"></path><path d="M548 386.6L583 379.7L536 344.9Z" fill="#004b9c" stroke="#004b9c"></path><path d="M421 423.6L473 409.6L469 368.9Z" fill="#1e2e53" stroke="#1e2e53"></path><path d="M480 391.7L473 409.6L548 386.6Z" fill="#17181f" stroke="#17181f"></path><path d="M603 403.6L598 378.7L583 379.7Z" fill="#17181f" stroke="#17181f"></path><path d="M395 296L397 306.1L415 296.9Z" fill="#1e2845" stroke="#1e2845"></path><path d="M415 296.9L392 373.9L469 368.9Z" fill="#1e2845" stroke="#1e2845"></path><path d="M442 226.1L395 296L415 296.9Z" fill="#1b396f" stroke="#1b396f"></path><path d="M596 252.1L554 202.4L542 228.3Z" fill="#1e2e53" stroke="#1e2e53"></path><path d="M542 221.3L497 160.3L489 238.1Z" fill="#173f7e" stroke="#173f7e"></path><path d="M603 403.6L583 379.7L548 386.6Z" fill="#1c2338" stroke="#1c2338"></path><path d="M583 379.7L622 331.9L536 344.9Z" fill="#173f7e" stroke="#173f7e"></path><path d="M437 187.3L441 211.4L497 160.3Z" fill="#0f458d" stroke="#0f458d"></path><path d="M353 269.1L375 292L361 224.4Z" fill="#1d3461" stroke="#1d3461"></path><path d="M598 378.7L622 331.9L583 379.7Z" fill="#1a1e2b" stroke="#1a1e2b"></path><path d="M375 292L395 296L361 224.4Z" fill="#1e2e53" stroke="#1e2e53"></path><path d="M395 296L375 292L397 306.1Z" fill="#1a1e2b" stroke="#1a1e2b"></path><path d="M397 306.1L392 373.9L415 296.9Z" fill="#1e2845" stroke="#1e2845"></path><path d="M375 366.9L392 373.9L397 306.1Z" fill="#1c2338" stroke="#1c2338"></path><path d="M613 424.7L603 403.6L581 470.6Z" fill="#173f7e" stroke="#173f7e"></path><path d="M671 365.9L652 328L622 331.9Z" fill="#1c2338" stroke="#1c2338"></path><path d="M652 328L644 302L622 331.9Z" fill="#131313" stroke="#131313"></path><path d="M622 331.9L644 302L596 252.1Z" fill="#1e2e53" stroke="#1e2e53"></path><path d="M596 252.1L643 224.4L554 202.4Z" fill="#0f458d" stroke="#0f458d"></path><path d="M497 160.3L441 211.4L489 238.1Z" fill="#173f7e" stroke="#173f7e"></path><path d="M353 269.1L358 293L375 292Z" fill="#1e2e53" stroke="#1e2e53"></path><path d="M392 373.9L421 423.6L469 368.9Z" fill="#1b396f" stroke="#1b396f"></path><path d="M581 470.6L603 403.6L548 386.6Z" fill="#1e2845" stroke="#1e2845"></path><path d="M356 306.1L375 366.9L397 306.1Z" fill="#004b9c" stroke="#004b9c"></path><path d="M392 373.9L395 407.7L421 423.6Z" fill="#1b396f" stroke="#1b396f"></path><path d="M671 365.9L622 331.9L598 378.7Z" fill="#004b9c" stroke="#004b9c"></path><path d="M554 202.4L497 160.3L542 221.3Z" fill="#17181f" stroke="#17181f"></path><path d="M652 328L655 303.9L644 302Z" fill="#1e2e53" stroke="#1e2e53"></path><path d="M644 302L643 224.4L596 252.1Z" fill="#131313" stroke="#131313"></path><path d="M395 296L442 226.1L361 224.4Z" fill="#131313" stroke="#131313"></path><path d="M375 292L356 306.1L397 306.1Z" fill="#131313" stroke="#131313"></path><path d="M369 382.6L395 407.7L392 373.9Z" fill="#173f7e" stroke="#173f7e"></path><path d="M358 293L356 306.1L375 292Z" fill="#1a1e2b" stroke="#1a1e2b"></path><path d="M289 299L369 382.6L375 366.9Z" fill="#1e2845" stroke="#1e2845"></path><path d="M375 366.9L369 382.6L392 373.9Z" fill="#1c2338" stroke="#1c2338"></path><path d="M581 470.6L548 386.6L473 409.6Z" fill="#131313" stroke="#131313"></path><path d="M641 418.6L671 365.9L598 378.7Z" fill="#0f458d" stroke="#0f458d"></path><path d="M683 283L643 224.4L644 302Z" fill="#004b9c" stroke="#004b9c"></path><path d="M554 202.4L565 138.6L497 160.3Z" fill="#1e2845" stroke="#1e2845"></path><path d="M358 293L299 273L356 306.1Z" fill="#131313" stroke="#131313"></path><path d="M361 224.4L442 226.1L441 211.4Z" fill="#1a1e2b" stroke="#1a1e2b"></path><path d="M437 187.3L361 224.4L441 211.4Z" fill="#1e2845" stroke="#1e2845"></path><path d="M341 430.7L363 401.7L304 428.4Z" fill="#004b9c" stroke="#004b9c"></path><path d="M369 382.6L363 401.7L395 407.7Z" fill="#1e2845" stroke="#1e2845"></path><path d="M395 407.7L388 460.6L421 423.6Z" fill="#131313" stroke="#131313"></path><path d="M359 441.4L363 401.7L341 430.7Z" fill="#17181f" stroke="#17181f"></path><path d="M641 418.6L598 378.7L603 403.6Z" fill="#173f7e" stroke="#173f7e"></path><path d="M652 328L683 283L655 303.9Z" fill="#1d3461" stroke="#1d3461"></path><path d="M655 303.9L683 283L644 302Z" fill="#17181f" stroke="#17181f"></path><path d="M613 424.7L641 418.6L603 403.6Z" fill="#131313" stroke="#131313"></path><path d="M416 142.4L407 163.3L437 187.3Z" fill="#1d3461" stroke="#1d3461"></path><path d="M437 187.3L407 163.3L361 224.4Z" fill="#173f7e" stroke="#173f7e"></path><path d="M388 460.6L461 475.4L421 423.6Z" fill="#1d3461" stroke="#1d3461"></path><path d="M421 423.6L461 475.4L473 409.6Z" fill="#173f7e" stroke="#173f7e"></path><path d="M613 424.7L631 470.3L641 418.6Z" fill="#1e2845" stroke="#1e2845"></path><path d="M643 224.4L584 147.4L554 202.4Z" fill="#1e2845" stroke="#1e2845"></path><path d="M441 122.4L416 142.4L437 187.3Z" fill="#1e2e53" stroke="#1e2e53"></path><path d="M671 365.9L683 283L652 328Z" fill="#1e2845" stroke="#1e2845"></path><path d="M584 147.4L565 138.6L554 202.4Z" fill="#1d3461" stroke="#1d3461"></path><path d="M522 508.4L581 470.6L473 409.6Z" fill="#1b396f" stroke="#1b396f"></path><path d="M652 163.6L580 134.4L584 147.4Z" fill="#004b9c" stroke="#004b9c"></path><path d="M584 147.4L580 134.4L565 138.6Z" fill="#1a1e2b" stroke="#1a1e2b"></path><path d="M441 122.4L437 187.3L497 160.3Z" fill="#17181f" stroke="#17181f"></path><path d="M453 500.3L472 490.3L461 475.4Z" fill="#17181f" stroke="#17181f"></path><path d="M461 475.4L472 490.3L473 409.6Z" fill="#1e2845" stroke="#1e2845"></path><path d="M696 257.1L671 213.3L643 224.4Z" fill="#1a1e2b" stroke="#1a1e2b"></path><path d="M643 224.4L652 163.6L584 147.4Z" fill="#0f458d" stroke="#0f458d"></path><path d="M530 115.6L497 160.3L565 138.6Z" fill="#1c2338" stroke="#1c2338"></path><path d="M316 153.6L309 230.1L361 224.4Z" fill="#173f7e" stroke="#173f7e"></path><path d="M532 106.6L530 115.6L565 138.6Z" fill="#1c2338" stroke="#1c2338"></path><path d="M718 276.1L696 257.1L683 283Z" fill="#173f7e" stroke="#173f7e"></path><path d="M683 283L696 257.1L643 224.4Z" fill="#1e2e53" stroke="#1e2e53"></path><path d="M359 441.4L388 460.6L395 407.7Z" fill="#1c2338" stroke="#1c2338"></path><path d="M530 115.6L441 122.4L497 160.3Z" fill="#1c2338" stroke="#1c2338"></path><path d="M441 122.4L415 131.7L416 142.4Z" fill="#1e2845" stroke="#1e2845"></path><path d="M416 142.4L415 131.7L407 163.3Z" fill="#1e2e53" stroke="#1e2e53"></path><path d="M363 401.7L359 441.4L395 407.7Z" fill="#1a1e2b" stroke="#1a1e2b"></path><path d="M363 401.7L369 382.6L304 428.4Z" fill="#1b396f" stroke="#1b396f"></path><path d="M440 497.4L453 500.3L461 475.4Z" fill="#17181f" stroke="#17181f"></path><path d="M472 490.3L522 508.4L473 409.6Z" fill="#1a1e2b" stroke="#1a1e2b"></path><path d="M552 91.7L532 106.6L565 138.6Z" fill="#131313" stroke="#131313"></path><path d="M530 115.6L518 76.9L441 122.4Z" fill="#1d3461" stroke="#1d3461"></path><path d="M453 500.3L470 505.1L472 490.3Z" fill="#1a1e2b" stroke="#1a1e2b"></path><path d="M470 505.1L522 508.4L472 490.3Z" fill="#1b396f" stroke="#1b396f"></path><path d="M453 500.3L463 518.1L470 505.1Z" fill="#004b9c" stroke="#004b9c"></path><path d="M388 460.6L440 497.4L461 475.4Z" fill="#1e2e53" stroke="#1e2e53"></path><path d="M463 518.1L440 497.4L411 513.3Z" fill="#1d3461" stroke="#1d3461"></path><path d="M681 196.4L652 163.6L671 213.3Z" fill="#1d3461" stroke="#1d3461"></path><path d="M671 213.3L652 163.6L643 224.4Z" fill="#1b396f" stroke="#1b396f"></path><path d="M580 134.4L552 91.7L565 138.6Z" fill="#1c2338" stroke="#1c2338"></path><path d="M613 505.3L631 470.3L581 470.6Z" fill="#0f458d" stroke="#0f458d"></path><path d="M581 470.6L631 470.3L613 424.7Z" fill="#17181f" stroke="#17181f"></path><path d="M641 418.6L682 420.7L671 365.9Z" fill="#004b9c" stroke="#004b9c"></path><path d="M696 257.1L681 196.4L671 213.3Z" fill="#1e2845" stroke="#1e2845"></path><path d="M289 299L375 366.9L356 306.1Z" fill="#17181f" stroke="#17181f"></path><path d="M331 520.1L411 513.3L388 460.6Z" fill="#173f7e" stroke="#173f7e"></path><path d="M631 470.3L682 420.7L641 418.6Z" fill="#1e2e53" stroke="#1e2e53"></path><path d="M671 365.9L718 276.1L683 283Z" fill="#1d3461" stroke="#1d3461"></path><path d="M309 230.1L299 273L353 269.1Z" fill="#0f458d" stroke="#0f458d"></path><path d="M353 269.1L299 273L358 293Z" fill="#004b9c" stroke="#004b9c"></path><path d="M309 230.1L353 269.1L361 224.4Z" fill="#0f458d" stroke="#0f458d"></path><path d="M769 258.3L718 276.1L780 308.9Z" fill="#17181f" stroke="#17181f"></path><path d="M696 257.1L746 234.3L681 196.4Z" fill="#131313" stroke="#131313"></path><path d="M316 153.6L361 224.4L407 163.3Z" fill="#1c2338" stroke="#1c2338"></path><path d="M411 513.3L440 497.4L388 460.6Z" fill="#1d3461" stroke="#1d3461"></path><path d="M440 497.4L463 518.1L453 500.3Z" fill="#1c2338" stroke="#1c2338"></path><path d="M470 505.1L463 518.1L522 508.4Z" fill="#1e2e53" stroke="#1e2e53"></path><path d="M597 551.1L577 513.3L528 600Z" fill="#1c2338" stroke="#1c2338"></path><path d="M522 508.4L577 513.3L581 470.6Z" fill="#1c2338" stroke="#1c2338"></path><path d="M260 329.9L289 299L229 269.1Z" fill="#1a1e2b" stroke="#1a1e2b"></path><path d="M299 273L289 299L356 306.1Z" fill="#173f7e" stroke="#173f7e"></path><path d="M558 77.9L552 91.7L580 134.4Z" fill="#1b396f" stroke="#1b396f"></path><path d="M439 83.7L431 95.6L441 122.4Z" fill="#1a1e2b" stroke="#1a1e2b"></path><path d="M597 551.1L589 513.4L577 513.3Z" fill="#1a1e2b" stroke="#1a1e2b"></path><path d="M577 513.3L589 513.4L581 470.6Z" fill="#0f458d" stroke="#0f458d"></path><path d="M631 470.3L710 473.6L682 420.7Z" fill="#1e2e53" stroke="#1e2e53"></path><path d="M518 76.9L530 115.6L532 106.6Z" fill="#1b396f" stroke="#1b396f"></path><path d="M441 122.4L431 95.6L415 131.7Z" fill="#0f458d" stroke="#0f458d"></path><path d="M415 131.7L397 104.6L407 163.3Z" fill="#1a1e2b" stroke="#1a1e2b"></path><path d="M589 513.4L613 505.3L581 470.6Z" fill="#1e2845" stroke="#1e2845"></path><path d="M323 482.4L388 460.6L359 441.4Z" fill="#1d3461" stroke="#1d3461"></path><path d="M552 91.7L518 76.9L532 106.6Z" fill="#1c2338" stroke="#1c2338"></path><path d="M431 95.6L397 104.6L415 131.7Z" fill="#1e2845" stroke="#1e2845"></path><path d="M597 551.1L634 501.4L613 505.3Z" fill="#1e2e53" stroke="#1e2e53"></path><path d="M613 505.3L634 501.4L631 470.3Z" fill="#1b396f" stroke="#1b396f"></path><path d="M455 68.7L439 83.7L441 122.4Z" fill="#1e2e53" stroke="#1e2e53"></path><path d="M431 95.6L416 66.9L397 104.6Z" fill="#1d3461" stroke="#1d3461"></path><path d="M616 74.9L558 77.9L580 134.4Z" fill="#1a1e2b" stroke="#1a1e2b"></path><path d="M552 91.7L558 77.9L518 76.9Z" fill="#004b9c" stroke="#004b9c"></path><path d="M260 329.9L304 428.4L369 382.6Z" fill="#0f458d" stroke="#0f458d"></path><path d="M341 430.7L323 482.4L359 441.4Z" fill="#1b396f" stroke="#1b396f"></path><path d="M455 68.7L438 74.9L439 83.7Z" fill="#1a1e2b" stroke="#1a1e2b"></path><path d="M439 83.7L416 66.9L431 95.6Z" fill="#1d3461" stroke="#1d3461"></path><path d="M518 76.9L455 68.7L441 122.4Z" fill="#17181f" stroke="#17181f"></path><path d="M412 42.9L455 68.7L442 0Z" fill="#1e2e53" stroke="#1e2e53"></path><path d="M330 123.4L316 153.6L407 163.3Z" fill="#1e2e53" stroke="#1e2e53"></path><path d="M263 255L289 299L299 273Z" fill="#131313" stroke="#131313"></path><path d="M345 110.6L407 163.3L397 104.6Z" fill="#17181f" stroke="#17181f"></path><path d="M263 255L299 273L309 230.1Z" fill="#1c2338" stroke="#1c2338"></path><path d="M289 299L260 329.9L369 382.6Z" fill="#1d3461" stroke="#1d3461"></path><path d="M250 349.7L293 432.6L304 428.4Z" fill="#1a1e2b" stroke="#1a1e2b"></path><path d="M304 428.4L323 482.4L341 430.7Z" fill="#1d3461" stroke="#1d3461"></path><path d="M718 276.1L746 234.3L696 257.1Z" fill="#1e2845" stroke="#1e2845"></path><path d="M681 196.4L721 169.3L652 163.6Z" fill="#17181f" stroke="#17181f"></path><path d="M652 163.6L616 74.9L580 134.4Z" fill="#1a1e2b" stroke="#1a1e2b"></path><path d="M769 258.3L746 234.3L718 276.1Z" fill="#1e2e53" stroke="#1e2e53"></path><path d="M281 162.3L274 220.3L309 230.1Z" fill="#004b9c" stroke="#004b9c"></path><path d="M274 220.3L263 255L309 230.1Z" fill="#1e2845" stroke="#1e2845"></path><path d="M746 234.3L721 169.3L681 196.4Z" fill="#004b9c" stroke="#004b9c"></path><path d="M355 74.7L345 110.6L397 104.6Z" fill="#1b396f" stroke="#1b396f"></path><path d="M290 466.4L323 482.4L304 428.4Z" fill="#1e2e53" stroke="#1e2e53"></path><path d="M345 110.6L330 123.4L407 163.3Z" fill="#1a1e2b" stroke="#1a1e2b"></path><path d="M316 153.6L281 162.3L309 230.1Z" fill="#1e2e53" stroke="#1e2e53"></path><path d="M696 81.6L616 74.9L652 163.6Z" fill="#1d3461" stroke="#1d3461"></path><path d="M518 0L515 0L518 76.9Z" fill="#1b396f" stroke="#1b396f"></path><path d="M412 42.9L416 66.9L438 74.9Z" fill="#1d3461" stroke="#1d3461"></path><path d="M438 74.9L416 66.9L439 83.7Z" fill="#004b9c" stroke="#004b9c"></path><path d="M412 42.9L438 74.9L455 68.7Z" fill="#1b396f" stroke="#1b396f"></path><path d="M593 582.1L597 551.1L528 600Z" fill="#1a1e2b" stroke="#1a1e2b"></path><path d="M589 513.4L597 551.1L613 505.3Z" fill="#004b9c" stroke="#004b9c"></path><path d="M577 513.3L522 508.4L528 600Z" fill="#1e2e53" stroke="#1e2e53"></path><path d="M240 345.9L250 349.7L260 329.9Z" fill="#1e2845" stroke="#1e2845"></path><path d="M260 329.9L250 349.7L304 428.4Z" fill="#1b396f" stroke="#1b396f"></path><path d="M616 74.9L586 56.7L558 77.9Z" fill="#17181f" stroke="#17181f"></path><path d="M733 476.4L710 473.6L727 489.3Z" fill="#1b396f" stroke="#1b396f"></path><path d="M634 501.4L710 473.6L631 470.3Z" fill="#1a1e2b" stroke="#1a1e2b"></path><path d="M780 308.9L718 276.1L671 365.9Z" fill="#1b396f" stroke="#1b396f"></path><path d="M780 308.9L671 365.9L787 367.7Z" fill="#1a1e2b" stroke="#1a1e2b"></path><path d="M772 195.4L724 139.6L721 169.3Z" fill="#173f7e" stroke="#173f7e"></path><path d="M313 113.6L281 162.3L316 153.6Z" fill="#173f7e" stroke="#173f7e"></path><path d="M274 220.3L229 269.1L263 255Z" fill="#1c2338" stroke="#1c2338"></path><path d="M313 113.6L316 153.6L330 123.4Z" fill="#173f7e" stroke="#173f7e"></path><path d="M270 440.6L290 466.4L293 432.6Z" fill="#1b396f" stroke="#1b396f"></path><path d="M293 432.6L290 466.4L304 428.4Z" fill="#1d3461" stroke="#1d3461"></path><path d="M222 271L240 345.9L260 329.9Z" fill="#1d3461" stroke="#1d3461"></path><path d="M250 349.7L270 440.6L293 432.6Z" fill="#17181f" stroke="#17181f"></path><path d="M229 269.1L289 299L263 255Z" fill="#1b396f" stroke="#1b396f"></path><path d="M767 418.7L671 365.9L682 420.7Z" fill="#1b396f" stroke="#1b396f"></path><path d="M221 363.9L270 440.6L250 349.7Z" fill="#1c2338" stroke="#1c2338"></path><path d="M772 195.4L721 169.3L746 234.3Z" fill="#131313" stroke="#131313"></path><path d="M721 169.3L724 139.6L652 163.6Z" fill="#1e2e53" stroke="#1e2e53"></path><path d="M616 74.9L595 35.7L586 56.7Z" fill="#131313" stroke="#131313"></path><path d="M355 74.7L313 113.6L345 110.6Z" fill="#004b9c" stroke="#004b9c"></path><path d="M345 110.6L313 113.6L330 123.4Z" fill="#1e2845" stroke="#1e2845"></path><path d="M724 139.6L713 121.7L652 163.6Z" fill="#1a1e2b" stroke="#1a1e2b"></path><path d="M710 473.6L749 442.6L682 420.7Z" fill="#004b9c" stroke="#004b9c"></path><path d="M322 518.3L331 520.1L323 482.4Z" fill="#173f7e" stroke="#173f7e"></path><path d="M323 482.4L331 520.1L388 460.6Z" fill="#1a1e2b" stroke="#1a1e2b"></path><path d="M528 600L522 508.4L463 518.1Z" fill="#17181f" stroke="#17181f"></path><path d="M322 518.3L323 482.4L296 510.3Z" fill="#1d3461" stroke="#1d3461"></path><path d="M416 66.9L355 74.7L397 104.6Z" fill="#1c2338" stroke="#1c2338"></path><path d="M515 0L455 68.7L518 76.9Z" fill="#173f7e" stroke="#173f7e"></path><path d="M416 66.9L412 42.9L355 74.7Z" fill="#1c2338" stroke="#1c2338"></path><path d="M222 271L229 269.1L214 175.6Z" fill="#1c2338" stroke="#1c2338"></path><path d="M296 510.3L323 482.4L290 466.4Z" fill="#1a1e2b" stroke="#1a1e2b"></path><path d="M710 473.6L733 476.4L749 442.6Z" fill="#1b396f" stroke="#1b396f"></path><path d="M707 506.4L710 473.6L634 501.4Z" fill="#1b396f" stroke="#1b396f"></path><path d="M684 550.1L707 506.4L634 501.4Z" fill="#0f458d" stroke="#0f458d"></path><path d="M763 439.4L767 418.7L749 442.6Z" fill="#1b396f" stroke="#1b396f"></path><path d="M749 442.6L767 418.7L682 420.7Z" fill="#1d3461" stroke="#1d3461"></path><path d="M794 247L785 247L769 258.3Z" fill="#17181f" stroke="#17181f"></path><path d="M769 258.3L785 247L746 234.3Z" fill="#1c2338" stroke="#1c2338"></path><path d="M664 51.7L595 35.7L616 74.9Z" fill="#1d3461" stroke="#1d3461"></path><path d="M518 0L518 76.9L558 77.9Z" fill="#1e2845" stroke="#1e2845"></path><path d="M707 506.4L727 489.3L710 473.6Z" fill="#17181f" stroke="#17181f"></path><path d="M733 476.4L763 439.4L749 442.6Z" fill="#17181f" stroke="#17181f"></path><path d="M767 418.7L787 367.7L671 365.9Z" fill="#1c2338" stroke="#1c2338"></path><path d="M780 308.9L800 303.1L769 258.3Z" fill="#1e2e53" stroke="#1e2e53"></path><path d="M785 247L772 195.4L746 234.3Z" fill="#004b9c" stroke="#004b9c"></path><path d="M714 82.7L696 81.6L713 121.7Z" fill="#0f458d" stroke="#0f458d"></path><path d="M785 500.4L763 439.4L733 476.4Z" fill="#1c2338" stroke="#1c2338"></path><path d="M838 378.6L834 338.7L787 367.7Z" fill="#1b396f" stroke="#1b396f"></path><path d="M214 175.6L229 269.1L274 220.3Z" fill="#1c2338" stroke="#1c2338"></path><path d="M229 269.1L222 271L260 329.9Z" fill="#1e2845" stroke="#1e2845"></path><path d="M528 600L463 518.1L444 600Z" fill="#1d3461" stroke="#1d3461"></path><path d="M597 551.1L614 576.1L634 501.4Z" fill="#1a1e2b" stroke="#1a1e2b"></path><path d="M463 518.1L411 513.3L444 600Z" fill="#1b396f" stroke="#1b396f"></path><path d="M593 582.1L614 576.1L597 551.1Z" fill="#0f458d" stroke="#0f458d"></path><path d="M805 332.9L800 303.1L780 308.9Z" fill="#1a1e2b" stroke="#1a1e2b"></path><path d="M785 247L794 247L772 195.4Z" fill="#17181f" stroke="#17181f"></path><path d="M800 303.1L794 247L769 258.3Z" fill="#1e2845" stroke="#1e2845"></path><path d="M199 355.7L221 363.9L240 345.9Z" fill="#131313" stroke="#131313"></path><path d="M240 345.9L221 363.9L250 349.7Z" fill="#1e2845" stroke="#1e2845"></path><path d="M714 82.7L713 121.7L746 88.6Z" fill="#0f458d" stroke="#0f458d"></path><path d="M713 121.7L696 81.6L652 163.6Z" fill="#131313" stroke="#131313"></path><path d="M291 520.1L296 510.3L266 499.3Z" fill="#1e2845" stroke="#1e2845"></path><path d="M296 510.3L290 466.4L266 499.3Z" fill="#17181f" stroke="#17181f"></path><path d="M411 513.3L355 573.1L411 597.1Z" fill="#1b396f" stroke="#1b396f"></path><path d="M444 600L411 513.3L411 597.1Z" fill="#131313" stroke="#131313"></path><path d="M834 338.7L805 332.9L787 367.7Z" fill="#1d3461" stroke="#1d3461"></path><path d="M787 367.7L805 332.9L780 308.9Z" fill="#131313" stroke="#131313"></path><path d="M800 303.1L817 257.1L794 247Z" fill="#1d3461" stroke="#1d3461"></path><path d="M696 81.6L664 51.7L616 74.9Z" fill="#1c2338" stroke="#1c2338"></path><path d="M355 573.1L331 520.1L322 518.3Z" fill="#004b9c" stroke="#004b9c"></path><path d="M707 506.4L736 516.1L727 489.3Z" fill="#17181f" stroke="#17181f"></path><path d="M727 489.3L736 516.1L733 476.4Z" fill="#1c2338" stroke="#1c2338"></path><path d="M683 552.3L684 550.1L634 501.4Z" fill="#131313" stroke="#131313"></path><path d="M593 582.1L641 600L614 576.1Z" fill="#131313" stroke="#131313"></path><path d="M614 576.1L683 552.3L634 501.4Z" fill="#1e2845" stroke="#1e2845"></path><path d="M528 600L577 600L593 582.1Z" fill="#1c2338" stroke="#1c2338"></path><path d="M641 600L683 552.3L614 576.1Z" fill="#173f7e" stroke="#173f7e"></path><path d="M741 526.3L736 516.1L707 506.4Z" fill="#131313" stroke="#131313"></path><path d="M577 600L581 600L593 582.1Z" fill="#1c2338" stroke="#1c2338"></path><path d="M266 499.3L290 466.4L270 440.6Z" fill="#1e2845" stroke="#1e2845"></path><path d="M296 510.3L291 520.1L322 518.3Z" fill="#0f458d" stroke="#0f458d"></path><path d="M768 119.6L713 121.7L724 139.6Z" fill="#004b9c" stroke="#004b9c"></path><path d="M696 81.6L710 18.9L664 51.7Z" fill="#004b9c" stroke="#004b9c"></path><path d="M355 573.1L411 513.3L331 520.1Z" fill="#1a1e2b" stroke="#1a1e2b"></path><path d="M558 77.9L586 56.7L564 -2.1Z" fill="#1c2338" stroke="#1c2338"></path><path d="M518 0L558 77.9L564 -2.1Z" fill="#1b396f" stroke="#1b396f"></path><path d="M564 -2.1L586 56.7L595 35.7Z" fill="#131313" stroke="#131313"></path><path d="M317 600L355 573.1L322 518.3Z" fill="#1a1e2b" stroke="#1a1e2b"></path><path d="M308 0L291 87.9L355 74.7Z" fill="#131313" stroke="#131313"></path><path d="M355 74.7L291 87.9L313 113.6Z" fill="#1c2338" stroke="#1c2338"></path><path d="M313 113.6L244 143.4L281 162.3Z" fill="#1d3461" stroke="#1d3461"></path><path d="M281 162.3L214 175.6L274 220.3Z" fill="#131313" stroke="#131313"></path><path d="M352 0L355 74.7L412 42.9Z" fill="#131313" stroke="#131313"></path><path d="M215 457.6L266 499.3L270 440.6Z" fill="#1e2845" stroke="#1e2845"></path><path d="M741 526.3L707 506.4L684 550.1Z" fill="#1b396f" stroke="#1b396f"></path><path d="M838 378.6L787 367.7L767 418.7Z" fill="#004b9c" stroke="#004b9c"></path><path d="M291 87.9L244 143.4L313 113.6Z" fill="#131313" stroke="#131313"></path><path d="M222 271L199 355.7L240 345.9Z" fill="#1a1e2b" stroke="#1a1e2b"></path><path d="M221 363.9L215 457.6L270 440.6Z" fill="#1a1e2b" stroke="#1a1e2b"></path><path d="M172 262.1L199 355.7L222 271Z" fill="#17181f" stroke="#17181f"></path><path d="M829 247.1L817 257.1L860 329.9Z" fill="#1c2338" stroke="#1c2338"></path><path d="M794 247L817 168.3L772 195.4Z" fill="#17181f" stroke="#17181f"></path><path d="M772 195.4L768 119.6L724 139.6Z" fill="#173f7e" stroke="#173f7e"></path><path d="M515 0L442 0L455 68.7Z" fill="#173f7e" stroke="#173f7e"></path><path d="M634 0L564 -2.1L595 35.7Z" fill="#17181f" stroke="#17181f"></path><path d="M518 0L564 -2.1L515 0Z" fill="#1d3461" stroke="#1d3461"></path><path d="M515 0L564 -2.1L442 0Z" fill="#0f458d" stroke="#0f458d"></path><path d="M700 -12.1L435 0L442 0Z" fill="#131313" stroke="#131313"></path><path d="M442 0L435 0L412 42.9Z" fill="#1a1e2b" stroke="#1a1e2b"></path><path d="M355 573.1L392 600L411 597.1Z" fill="#1b396f" stroke="#1b396f"></path><path d="M411 597.1L392 600L444 600Z" fill="#1c2338" stroke="#1c2338"></path><path d="M355 573.1L381 600L392 600Z" fill="#004b9c" stroke="#004b9c"></path><path d="M317 600L381 600L355 573.1Z" fill="#1a1e2b" stroke="#1a1e2b"></path><path d="M317 600L322 518.3L313 600Z" fill="#0f458d" stroke="#0f458d"></path><path d="M204 135.7L226 155.4L244 143.4Z" fill="#0f458d" stroke="#0f458d"></path><path d="M244 143.4L226 155.4L281 162.3Z" fill="#1e2e53" stroke="#1e2e53"></path><path d="M689 589.1L684 550.1L683 552.3Z" fill="#1a1e2b" stroke="#1a1e2b"></path><path d="M755 549.1L741 526.3L684 550.1Z" fill="#004b9c" stroke="#004b9c"></path><path d="M736 516.1L785 500.4L733 476.4Z" fill="#1d3461" stroke="#1d3461"></path><path d="M817 168.3L768 119.6L772 195.4Z" fill="#173f7e" stroke="#173f7e"></path><path d="M226 155.4L214 175.6L281 162.3Z" fill="#1a1e2b" stroke="#1a1e2b"></path><path d="M581 600L641 600L593 582.1Z" fill="#004b9c" stroke="#004b9c"></path><path d="M637 0L634 0L664 51.7Z" fill="#1a1e2b" stroke="#1a1e2b"></path><path d="M664 51.7L634 0L595 35.7Z" fill="#131313" stroke="#131313"></path><path d="M768 119.6L746 88.6L713 121.7Z" fill="#1d3461" stroke="#1d3461"></path><path d="M860 329.9L817 257.1L800 303.1Z" fill="#1c2338" stroke="#1c2338"></path><path d="M817 257.1L829 247.1L794 247Z" fill="#0f458d" stroke="#0f458d"></path><path d="M838 378.6L767 418.7L863 404.7Z" fill="#131313" stroke="#131313"></path><path d="M805 332.9L834 338.7L800 303.1Z" fill="#0f458d" stroke="#0f458d"></path><path d="M160 401.7L215 457.6L221 363.9Z" fill="#1b396f" stroke="#1b396f"></path><path d="M313 600L322 518.3L291 520.1Z" fill="#1e2e53" stroke="#1e2e53"></path><path d="M641 600L662 600L683 552.3Z" fill="#17181f" stroke="#17181f"></path><path d="M637 0L664 51.7L668 0Z" fill="#004b9c" stroke="#004b9c"></path><path d="M668 0L664 51.7L710 18.9Z" fill="#17181f" stroke="#17181f"></path><path d="M634 0L700 -12.1L564 -2.1Z" fill="#1a1e2b" stroke="#1a1e2b"></path><path d="M662 600L668 600L683 552.3Z" fill="#1b396f" stroke="#1b396f"></path><path d="M260 57.7L257 84.7L291 87.9Z" fill="#1e2845" stroke="#1e2845"></path><path d="M291 87.9L257 84.7L244 143.4Z" fill="#17181f" stroke="#17181f"></path><path d="M226 155.4L201 171.3L214 175.6Z" fill="#1e2845" stroke="#1e2845"></path><path d="M204 135.7L201 171.3L226 155.4Z" fill="#17181f" stroke="#17181f"></path><path d="M214 175.6L172 262.1L222 271Z" fill="#004b9c" stroke="#004b9c"></path><path d="M668 600L689 589.1L683 552.3Z" fill="#1d3461" stroke="#1d3461"></path><path d="M863 404.7L767 418.7L763 439.4Z" fill="#1a1e2b" stroke="#1a1e2b"></path><path d="M834 338.7L855 332L800 303.1Z" fill="#131313" stroke="#131313"></path><path d="M755 549.1L785 500.4L741 526.3Z" fill="#1e2845" stroke="#1e2845"></path><path d="M741 526.3L785 500.4L736 516.1Z" fill="#173f7e" stroke="#173f7e"></path><path d="M201 171.3L172 262.1L214 175.6Z" fill="#17181f" stroke="#17181f"></path><path d="M200 494.4L212 512.4L215 457.6Z" fill="#1e2845" stroke="#1e2845"></path><path d="M829 247.1L817 168.3L794 247Z" fill="#173f7e" stroke="#173f7e"></path><path d="M768 119.6L835 101.6L746 88.6Z" fill="#0f458d" stroke="#0f458d"></path><path d="M435 0L352 0L412 42.9Z" fill="#004b9c" stroke="#004b9c"></path><path d="M164 -10.1L352 0L435 0Z" fill="#1c2338" stroke="#1c2338"></path><path d="M900 203.4L821 164.4L817 168.3Z" fill="#0f458d" stroke="#0f458d"></path><path d="M817 168.3L812 123.7L768 119.6Z" fill="#173f7e" stroke="#173f7e"></path><path d="M710 18.9L714 82.7L746 88.6Z" fill="#1e2e53" stroke="#1e2e53"></path><path d="M710 18.9L696 81.6L714 82.7Z" fill="#1b396f" stroke="#1b396f"></path><path d="M637 0L700 -12.1L634 0Z" fill="#1e2e53" stroke="#1e2e53"></path><path d="M689 589.1L755 549.1L684 550.1Z" fill="#173f7e" stroke="#173f7e"></path><path d="M838 378.6L855 332L834 338.7Z" fill="#1b396f" stroke="#1b396f"></path><path d="M829 247.1L900 203.4L817 168.3Z" fill="#173f7e" stroke="#173f7e"></path><path d="M257 84.7L204 135.7L244 143.4Z" fill="#1e2e53" stroke="#1e2e53"></path><path d="M124 224.1L142 290.9L172 262.1Z" fill="#1b396f" stroke="#1b396f"></path><path d="M313 600L291 520.1L211 545.3Z" fill="#173f7e" stroke="#173f7e"></path><path d="M261 30.9L260 57.7L291 87.9Z" fill="#131313" stroke="#131313"></path><path d="M257 84.7L191 119.6L204 135.7Z" fill="#1b396f" stroke="#1b396f"></path><path d="M731 0L710 18.9L791 25.9Z" fill="#1a1e2b" stroke="#1a1e2b"></path><path d="M211 545.3L291 520.1L266 499.3Z" fill="#1b396f" stroke="#1b396f"></path><path d="M260 57.7L250 65.9L257 84.7Z" fill="#1a1e2b" stroke="#1a1e2b"></path><path d="M900 340.9L860 329.9L900 348.7Z" fill="#1c2338" stroke="#1c2338"></path><path d="M900 348.7L860 329.9L855 332Z" fill="#1e2e53" stroke="#1e2e53"></path><path d="M855 332L860 329.9L800 303.1Z" fill="#1c2338" stroke="#1c2338"></path><path d="M835 101.6L812 123.7L821 164.4Z" fill="#17181f" stroke="#17181f"></path><path d="M821 164.4L812 123.7L817 168.3Z" fill="#1e2e53" stroke="#1e2e53"></path><path d="M160 401.7L221 363.9L199 355.7Z" fill="#1b396f" stroke="#1b396f"></path><path d="M215 457.6L212 512.4L266 499.3Z" fill="#004b9c" stroke="#004b9c"></path><path d="M154 376.6L160 401.7L199 355.7Z" fill="#0f458d" stroke="#0f458d"></path><path d="M174 465.6L200 494.4L215 457.6Z" fill="#1b396f" stroke="#1b396f"></path><path d="M143 337L154 376.6L199 355.7Z" fill="#1e2e53" stroke="#1e2e53"></path><path d="M192 507.1L211 519.3L212 512.4Z" fill="#173f7e" stroke="#173f7e"></path><path d="M212 512.4L211 519.3L266 499.3Z" fill="#173f7e" stroke="#173f7e"></path><path d="M352 0L308 0L355 74.7Z" fill="#1e2e53" stroke="#1e2e53"></path><path d="M260 57.7L261 30.9L250 65.9Z" fill="#1a1e2b" stroke="#1a1e2b"></path><path d="M164 -10.1L308 0L352 0Z" fill="#173f7e" stroke="#173f7e"></path><path d="M142 290.9L143 337L199 355.7Z" fill="#131313" stroke="#131313"></path><path d="M154 376.6L130 381.7L160 401.7Z" fill="#0f458d" stroke="#0f458d"></path><path d="M142 290.9L199 355.7L172 262.1Z" fill="#131313" stroke="#131313"></path><path d="M157 181.3L172 262.1L201 171.3Z" fill="#004b9c" stroke="#004b9c"></path><path d="M184 96.7L191 119.6L257 84.7Z" fill="#173f7e" stroke="#173f7e"></path><path d="M175 124.4L157 181.3L201 171.3Z" fill="#1a1e2b" stroke="#1a1e2b"></path><path d="M175 124.4L191 119.6L180 110.7Z" fill="#004b9c" stroke="#004b9c"></path><path d="M755 549.1L816 508.1L785 500.4Z" fill="#004b9c" stroke="#004b9c"></path><path d="M785 500.4L838 501.3L763 439.4Z" fill="#1a1e2b" stroke="#1a1e2b"></path><path d="M838 501.3L863 404.7L763 439.4Z" fill="#1e2e53" stroke="#1e2e53"></path><path d="M160 401.7L174 465.6L215 457.6Z" fill="#1c2338" stroke="#1c2338"></path><path d="M200 494.4L192 507.1L212 512.4Z" fill="#1b396f" stroke="#1b396f"></path><path d="M131 477.4L174 465.6L160 401.7Z" fill="#1e2845" stroke="#1e2845"></path><path d="M308 0L261 30.9L291 87.9Z" fill="#1a1e2b" stroke="#1a1e2b"></path><path d="M731 0L700 -12.1L710 18.9Z" fill="#1b396f" stroke="#1b396f"></path><path d="M710 18.9L700 -12.1L668 0Z" fill="#1e2e53" stroke="#1e2e53"></path><path d="M668 0L700 -12.1L637 0Z" fill="#1c2338" stroke="#1c2338"></path><path d="M564 -2.1L700 -12.1L442 0Z" fill="#131313" stroke="#131313"></path><path d="M175 124.4L201 171.3L204 135.7Z" fill="#0f458d" stroke="#0f458d"></path><path d="M174 465.6L192 507.1L200 494.4Z" fill="#1e2e53" stroke="#1e2e53"></path><path d="M211 519.3L211 545.3L266 499.3Z" fill="#1e2e53" stroke="#1e2e53"></path><path d="M164 -10.1L288 0L308 0Z" fill="#004b9c" stroke="#004b9c"></path><path d="M308 0L288 0L261 30.9Z" fill="#1a1e2b" stroke="#1a1e2b"></path><path d="M791 25.9L710 18.9L746 88.6Z" fill="#1c2338" stroke="#1c2338"></path><path d="M180 110.7L191 119.6L184 96.7Z" fill="#1e2845" stroke="#1e2845"></path><path d="M191 119.6L175 124.4L204 135.7Z" fill="#17181f" stroke="#17181f"></path><path d="M257 84.7L250 65.9L184 96.7Z" fill="#004b9c" stroke="#004b9c"></path><path d="M192 507.1L211 545.3L211 519.3Z" fill="#1d3461" stroke="#1d3461"></path><path d="M900 316L884 244.3L860 329.9Z" fill="#1e2845" stroke="#1e2845"></path><path d="M860 329.9L884 244.3L829 247.1Z" fill="#173f7e" stroke="#173f7e"></path><path d="M184 96.7L250 65.9L183 0Z" fill="#1b396f" stroke="#1b396f"></path><path d="M840 520.4L838 501.3L816 508.1Z" fill="#1e2845" stroke="#1e2845"></path><path d="M816 508.1L838 501.3L785 500.4Z" fill="#17181f" stroke="#17181f"></path><path d="M840 520.4L816 508.1L784 600Z" fill="#131313" stroke="#131313"></path><path d="M116 336.7L130 381.7L143 337Z" fill="#1e2e53" stroke="#1e2e53"></path><path d="M143 337L130 381.7L154 376.6Z" fill="#131313" stroke="#131313"></path><path d="M174 465.6L131 477.4L192 507.1Z" fill="#1c2338" stroke="#1c2338"></path><path d="M224 0L250 65.9L261 30.9Z" fill="#173f7e" stroke="#173f7e"></path><path d="M138 87.6L140 144.6L175 124.4Z" fill="#1d3461" stroke="#1d3461"></path><path d="M900 110.6L835 101.6L821 164.4Z" fill="#1e2845" stroke="#1e2845"></path><path d="M812 123.7L835 101.6L768 119.6Z" fill="#1d3461" stroke="#1d3461"></path><path d="M117 307.1L121 333.9L143 337Z" fill="#17181f" stroke="#17181f"></path><path d="M117 307.1L143 337L142 290.9Z" fill="#0f458d" stroke="#0f458d"></path><path d="M96 267.3L117 307.1L142 290.9Z" fill="#131313" stroke="#131313"></path><path d="M124 224.1L172 262.1L157 181.3Z" fill="#1c2338" stroke="#1c2338"></path><path d="M855 332L838 378.6L900 348.7Z" fill="#1b396f" stroke="#1b396f"></path><path d="M900 340.9L900 316L860 329.9Z" fill="#1a1e2b" stroke="#1a1e2b"></path><path d="M140 144.6L157 181.3L175 124.4Z" fill="#004b9c" stroke="#004b9c"></path><path d="M120 186.3L124 224.1L157 181.3Z" fill="#131313" stroke="#131313"></path><path d="M117 307.1L116 336.7L121 333.9Z" fill="#17181f" stroke="#17181f"></path><path d="M121 333.9L116 336.7L143 337Z" fill="#1a1e2b" stroke="#1a1e2b"></path><path d="M900 348.7L838 378.6L900 378.6Z" fill="#0f458d" stroke="#0f458d"></path><path d="M900 378.6L838 378.6L863 404.7Z" fill="#1e2e53" stroke="#1e2e53"></path><path d="M784 600L816 508.1L755 549.1Z" fill="#004b9c" stroke="#004b9c"></path><path d="M880 460.6L900 378.6L863 404.7Z" fill="#1a1e2b" stroke="#1a1e2b"></path><path d="M778 600L755 549.1L689 589.1Z" fill="#131313" stroke="#131313"></path><path d="M900 316L900 247.3L884 244.3Z" fill="#1e2845" stroke="#1e2845"></path><path d="M884 244.3L900 210.1L829 247.1Z" fill="#173f7e" stroke="#173f7e"></path><path d="M835 101.6L791 25.9L746 88.6Z" fill="#173f7e" stroke="#173f7e"></path><path d="M880 460.6L863 404.7L838 501.3Z" fill="#1a1e2b" stroke="#1a1e2b"></path><path d="M668 600L778 600L689 589.1Z" fill="#1e2e53" stroke="#1e2e53"></path><path d="M138 87.6L175 124.4L180 110.7Z" fill="#131313" stroke="#131313"></path><path d="M900 478.4L880 460.6L838 501.3Z" fill="#1e2845" stroke="#1e2845"></path><path d="M778 600L784 600L755 549.1Z" fill="#1a1e2b" stroke="#1a1e2b"></path><path d="M900 247.3L900 210.1L884 244.3Z" fill="#1e2e53" stroke="#1e2e53"></path><path d="M854 0L793 0L791 25.9Z" fill="#1d3461" stroke="#1d3461"></path><path d="M900 210.1L900 203.4L829 247.1Z" fill="#1a1e2b" stroke="#1a1e2b"></path><path d="M140 144.6L120 186.3L157 181.3Z" fill="#1c2338" stroke="#1c2338"></path><path d="M124 224.1L96 267.3L142 290.9Z" fill="#1a1e2b" stroke="#1a1e2b"></path><path d="M117 307.1L83 337L116 336.7Z" fill="#1d3461" stroke="#1d3461"></path><path d="M91 182.4L111 190.4L120 186.3Z" fill="#17181f" stroke="#17181f"></path><path d="M120 186.3L111 190.4L124 224.1Z" fill="#17181f" stroke="#17181f"></path><path d="M91 182.4L96 267.3L124 224.1Z" fill="#1a1e2b" stroke="#1a1e2b"></path><path d="M130 381.7L131 477.4L160 401.7Z" fill="#1d3461" stroke="#1d3461"></path><path d="M171 579.1L201 600L211 545.3Z" fill="#1b396f" stroke="#1b396f"></path><path d="M66 433.7L131 477.4L130 381.7Z" fill="#1e2845" stroke="#1e2845"></path><path d="M83 337L130 381.7L116 336.7Z" fill="#173f7e" stroke="#173f7e"></path><path d="M164 -10.1L224 0L288 0Z" fill="#17181f" stroke="#17181f"></path><path d="M288 0L224 0L261 30.9Z" fill="#173f7e" stroke="#173f7e"></path><path d="M184 96.7L138 87.6L180 110.7Z" fill="#131313" stroke="#131313"></path><path d="M82 170.6L91 182.4L120 186.3Z" fill="#173f7e" stroke="#173f7e"></path><path d="M731 0L791 -9.1L700 -12.1Z" fill="#004b9c" stroke="#004b9c"></path><path d="M791 25.9L793 0L731 0Z" fill="#17181f" stroke="#17181f"></path><path d="M791 -9.1L793 0L854 0Z" fill="#1a1e2b" stroke="#1a1e2b"></path><path d="M30 308.9L87 287.9L21 260Z" fill="#0f458d" stroke="#0f458d"></path><path d="M96 267.3L87 287.9L117 307.1Z" fill="#173f7e" stroke="#173f7e"></path><path d="M854 0L791 25.9L835 101.6Z" fill="#131313" stroke="#131313"></path><path d="M793 0L791 -9.1L731 0Z" fill="#1e2845" stroke="#1e2845"></path><path d="M171 579.1L211 545.3L192 507.1Z" fill="#1c2338" stroke="#1c2338"></path><path d="M211 545.3L201 600L313 600Z" fill="#1e2e53" stroke="#1e2e53"></path><path d="M87 287.9L83 337L117 307.1Z" fill="#17181f" stroke="#17181f"></path><path d="M900 210.1L908 157.4L900 203.4Z" fill="#1a1e2b" stroke="#1a1e2b"></path><path d="M900 203.4L908 157.4L821 164.4Z" fill="#1c2338" stroke="#1c2338"></path><path d="M900 247.3L908 157.4L900 210.1Z" fill="#1c2338" stroke="#1c2338"></path><path d="M900 316L908 157.4L900 247.3Z" fill="#131313" stroke="#131313"></path><path d="M900 340.9L908 157.4L900 316Z" fill="#1b396f" stroke="#1b396f"></path><path d="M900 348.7L908 157.4L900 340.9Z" fill="#173f7e" stroke="#173f7e"></path><path d="M900 378.6L908 157.4L900 348.7Z" fill="#131313" stroke="#131313"></path><path d="M900 514.3L838 501.3L840 520.4Z" fill="#1c2338" stroke="#1c2338"></path><path d="M900 514.3L900 478.4L838 501.3Z" fill="#004b9c" stroke="#004b9c"></path><path d="M880 460.6L900 478.4L900 378.6Z" fill="#17181f" stroke="#17181f"></path><path d="M900 378.6L900 478.4L908 157.4Z" fill="#004b9c" stroke="#004b9c"></path><path d="M183 0L138 87.6L184 96.7Z" fill="#004b9c" stroke="#004b9c"></path><path d="M784 600L856 562.3L840 520.4Z" fill="#0f458d" stroke="#0f458d"></path><path d="M133 543.3L171 579.1L192 507.1Z" fill="#173f7e" stroke="#173f7e"></path><path d="M82 170.6L120 186.3L140 144.6Z" fill="#0f458d" stroke="#0f458d"></path><path d="M111 190.4L91 182.4L124 224.1Z" fill="#173f7e" stroke="#173f7e"></path><path d="M0 375.9L47 424.4L83 337Z" fill="#173f7e" stroke="#173f7e"></path><path d="M908 157.4L900 110.6L821 164.4Z" fill="#1d3461" stroke="#1d3461"></path><path d="M177 600L179 600L171 579.1Z" fill="#1b396f" stroke="#1b396f"></path><path d="M171 579.1L179 600L201 600Z" fill="#004b9c" stroke="#004b9c"></path><path d="M909 91.7L900 105.7L900 110.6Z" fill="#1b396f" stroke="#1b396f"></path><path d="M900 110.6L900 105.7L835 101.6Z" fill="#1e2845" stroke="#1e2845"></path><path d="M116 541.1L127 530.3L53 465.6Z" fill="#1c2338" stroke="#1c2338"></path><path d="M131 477.4L127 530.3L192 507.1Z" fill="#17181f" stroke="#17181f"></path><path d="M113 600L177 600L171 579.1Z" fill="#17181f" stroke="#17181f"></path><path d="M127 530.3L133 543.3L192 507.1Z" fill="#173f7e" stroke="#173f7e"></path><path d="M900 529.1L900 514.3L840 520.4Z" fill="#0f458d" stroke="#0f458d"></path><path d="M900 478.4L900 514.3L908 157.4Z" fill="#1c2338" stroke="#1c2338"></path><path d="M164 -10.1L183 0L224 0Z" fill="#1a1e2b" stroke="#1a1e2b"></path><path d="M224 0L183 0L250 65.9Z" fill="#0f458d" stroke="#0f458d"></path><path d="M74 107.7L140 144.6L138 87.6Z" fill="#17181f" stroke="#17181f"></path><path d="M74 107.7L82 170.6L140 144.6Z" fill="#1e2845" stroke="#1e2845"></path><path d="M27 249.3L87 287.9L96 267.3Z" fill="#173f7e" stroke="#173f7e"></path><path d="M856 562.3L900 529.1L840 520.4Z" fill="#1e2e53" stroke="#1e2e53"></path><path d="M900 514.3L900 529.1L908 157.4Z" fill="#0f458d" stroke="#0f458d"></path><path d="M908 157.4L909 91.7L900 110.6Z" fill="#131313" stroke="#131313"></path><path d="M900 105.7L909 91.7L835 101.6Z" fill="#1e2e53" stroke="#1e2e53"></path><path d="M53 465.6L127 530.3L131 477.4Z" fill="#1b396f" stroke="#1b396f"></path><path d="M127 530.3L116 541.1L133 543.3Z" fill="#1d3461" stroke="#1d3461"></path><path d="M133 543.3L113 600L171 579.1Z" fill="#173f7e" stroke="#173f7e"></path><path d="M83 337L66 433.7L130 381.7Z" fill="#004b9c" stroke="#004b9c"></path><path d="M47 424.4L66 433.7L83 337Z" fill="#131313" stroke="#131313"></path><path d="M857 0L854 0L865 1.9Z" fill="#1d3461" stroke="#1d3461"></path><path d="M865 1.9L854 0L835 101.6Z" fill="#1a1e2b" stroke="#1a1e2b"></path><path d="M854 0L857 0L791 -9.1Z" fill="#1d3461" stroke="#1d3461"></path><path d="M700 -12.1L164 -10.1L435 0Z" fill="#0f458d" stroke="#0f458d"></path><path d="M183 0L140 0L138 87.6Z" fill="#173f7e" stroke="#173f7e"></path><path d="M909 91.7L865 1.9L835 101.6Z" fill="#004b9c" stroke="#004b9c"></path><path d="M30 308.9L83 337L87 287.9Z" fill="#0f458d" stroke="#0f458d"></path><path d="M66 433.7L53 465.6L131 477.4Z" fill="#1e2845" stroke="#1e2845"></path><path d="M82 6.9L74 107.7L138 87.6Z" fill="#1d3461" stroke="#1d3461"></path><path d="M27 249.3L96 267.3L91 182.4Z" fill="#004b9c" stroke="#004b9c"></path><path d="M27 249.3L91 182.4L82 170.6Z" fill="#1d3461" stroke="#1d3461"></path><path d="M164 -10.1L140 0L183 0Z" fill="#1b396f" stroke="#1b396f"></path><path d="M41 455.4L66 433.7L47 424.4Z" fill="#1e2e53" stroke="#1e2e53"></path><path d="M41 455.4L53 465.6L66 433.7Z" fill="#1c2338" stroke="#1c2338"></path><path d="M-7 246.1L27 249.3L0 173.6Z" fill="#1c2338" stroke="#1c2338"></path><path d="M784 600L897 600L856 562.3Z" fill="#17181f" stroke="#17181f"></path><path d="M856 562.3L897 600L900 529.1Z" fill="#173f7e" stroke="#173f7e"></path><path d="M0 281.1L21 260L-7 246.1Z" fill="#004b9c" stroke="#004b9c"></path><path d="M27 249.3L21 260L87 287.9Z" fill="#1e2e53" stroke="#1e2e53"></path><path d="M29 433.6L41 455.4L47 424.4Z" fill="#1e2e53" stroke="#1e2e53"></path><path d="M897 600L900 600L900 529.1Z" fill="#0f458d" stroke="#0f458d"></path><path d="M900 529.1L900 600L908 157.4Z" fill="#004b9c" stroke="#004b9c"></path><path d="M29 433.6L47 424.4L0 400.6Z" fill="#131313" stroke="#131313"></path><path d="M65 546.1L113 600L116 541.1Z" fill="#173f7e" stroke="#173f7e"></path><path d="M65 546.1L116 541.1L53 465.6Z" fill="#17181f" stroke="#17181f"></path><path d="M116 541.1L113 600L133 543.3Z" fill="#1e2845" stroke="#1e2845"></path><path d="M0 366.7L83 337L30 308.9Z" fill="#1a1e2b" stroke="#1a1e2b"></path><path d="M37 534.3L65 546.1L53 465.6Z" fill="#0f458d" stroke="#0f458d"></path><path d="M909 91.7L900 1.9L865 1.9Z" fill="#131313" stroke="#131313"></path><path d="M865 1.9L900 0L857 0Z" fill="#0f458d" stroke="#0f458d"></path><path d="M857 0L900 0L791 -9.1Z" fill="#17181f" stroke="#17181f"></path><path d="M909 91.7L900 0L900 1.9Z" fill="#173f7e" stroke="#173f7e"></path><path d="M900 1.9L900 0L865 1.9Z" fill="#0f458d" stroke="#0f458d"></path><path d="M37 534.3L53 465.6L-9 505.1Z" fill="#1e2e53" stroke="#1e2e53"></path><path d="M140 0L82 6.9L138 87.6Z" fill="#1b396f" stroke="#1b396f"></path><path d="M-7 246.1L21 260L27 249.3Z" fill="#1e2845" stroke="#1e2845"></path><path d="M164 -10.1L109 -6.1L140 0Z" fill="#1e2e53" stroke="#1e2e53"></path><path d="M0 281.1L0 321L30 308.9Z" fill="#1c2338" stroke="#1c2338"></path><path d="M0 281.1L30 308.9L21 260Z" fill="#1a1e2b" stroke="#1a1e2b"></path><path d="M27 249.3L82 170.6L0 173.6Z" fill="#131313" stroke="#131313"></path><path d="M0 321L0 366.7L30 308.9Z" fill="#173f7e" stroke="#173f7e"></path><path d="M0 468.4L53 465.6L41 455.4Z" fill="#1b396f" stroke="#1b396f"></path><path d="M0 366.7L0 375.9L83 337Z" fill="#17181f" stroke="#17181f"></path><path d="M0 375.9L0 400.6L47 424.4Z" fill="#0f458d" stroke="#0f458d"></path><path d="M0 173.6L82 170.6L0 168.3Z" fill="#17181f" stroke="#17181f"></path><path d="M0 281.1L-7 246.1L0 321Z" fill="#004b9c" stroke="#004b9c"></path><path d="M0 321L-7 246.1L0 366.7Z" fill="#004b9c" stroke="#004b9c"></path><path d="M0 366.7L-9 505.1L0 375.9Z" fill="#004b9c" stroke="#004b9c"></path><path d="M0 375.9L-9 505.1L0 400.6Z" fill="#1d3461" stroke="#1d3461"></path><path d="M109 -6.1L82 6.9L140 0Z" fill="#1e2845" stroke="#1e2845"></path><path d="M0 468.4L41 455.4L29 433.6Z" fill="#17181f" stroke="#17181f"></path><path d="M65 546.1L7 600L113 600Z" fill="#1d3461" stroke="#1d3461"></path><path d="M0 168.3L82 170.6L6 132.4Z" fill="#004b9c" stroke="#004b9c"></path><path d="M6 132.4L82 170.6L74 107.7Z" fill="#1e2845" stroke="#1e2845"></path><path d="M0 173.6L0 168.3L-7 246.1Z" fill="#1d3461" stroke="#1d3461"></path><path d="M48 20.9L33 69.7L74 107.7Z" fill="#1d3461" stroke="#1d3461"></path><path d="M0 102.7L6 132.4L74 107.7Z" fill="#1e2e53" stroke="#1e2e53"></path><path d="M0 400.6L0 468.4L29 433.6Z" fill="#173f7e" stroke="#173f7e"></path><path d="M-9 505.1L0 468.4L0 400.6Z" fill="#131313" stroke="#131313"></path><path d="M0 102.7L0 135.4L6 132.4Z" fill="#1d3461" stroke="#1d3461"></path><path d="M6 132.4L0 135.4L0 168.3Z" fill="#1e2e53" stroke="#1e2e53"></path><path d="M0 168.3L0 135.4L-7 246.1Z" fill="#004b9c" stroke="#004b9c"></path><path d="M82 6.9L48 20.9L74 107.7Z" fill="#1e2845" stroke="#1e2845"></path><path d="M33 69.7L0 102.7L74 107.7Z" fill="#1a1e2b" stroke="#1a1e2b"></path><path d="M61 0L48 20.9L82 6.9Z" fill="#173f7e" stroke="#173f7e"></path><path d="M109 -6.1L61 0L82 6.9Z" fill="#17181f" stroke="#17181f"></path><path d="M0 63.9L0 102.7L33 69.7Z" fill="#1d3461" stroke="#1d3461"></path><path d="M0 135.4L0 102.7L-7 246.1Z" fill="#131313" stroke="#131313"></path><path d="M61 0L52 0L48 20.9Z" fill="#1a1e2b" stroke="#1a1e2b"></path><path d="M48 20.9L0 63.9L33 69.7Z" fill="#1d3461" stroke="#1d3461"></path><path d="M109 -6.1L52 0L61 0Z" fill="#1e2845" stroke="#1e2845"></path><path d="M-7 246.1L-9 505.1L0 366.7Z" fill="#1e2e53" stroke="#1e2e53"></path><path d="M0 468.4L-9 505.1L53 465.6Z" fill="#1a1e2b" stroke="#1a1e2b"></path><path d="M37 534.3L7 600L65 546.1Z" fill="#1a1e2b" stroke="#1a1e2b"></path><path d="M-9 505.1L0 528.3L37 534.3Z" fill="#1b396f" stroke="#1b396f"></path><path d="M0 0L0 63.9L48 20.9Z" fill="#1c2338" stroke="#1c2338"></path><path d="M0 102.7L0 63.9L-7 246.1Z" fill="#17181f" stroke="#17181f"></path><path d="M0 600L7 600L0 528.3Z" fill="#0f458d" stroke="#0f458d"></path><path d="M0 528.3L7 600L37 534.3Z" fill="#0f458d" stroke="#0f458d"></path><path d="M-9 505.1L0 600L0 528.3Z" fill="#0f458d" stroke="#0f458d"></path><path d="M-9 505.1L0 607.1L0 600Z" fill="#17181f" stroke="#17181f"></path><path d="M0 600L0 607.1L7 600Z" fill="#1e2845" stroke="#1e2845"></path><path d="M7 600L0 607.1L113 600Z" fill="#131313" stroke="#131313"></path><path d="M113 600L0 607.1L177 600Z" fill="#173f7e" stroke="#173f7e"></path><path d="M177 600L0 607.1L179 600Z" fill="#0f458d" stroke="#0f458d"></path><path d="M179 600L0 607.1L201 600Z" fill="#1b396f" stroke="#1b396f"></path><path d="M201 600L0 607.1L313 600Z" fill="#1e2e53" stroke="#1e2e53"></path><path d="M313 600L0 607.1L317 600Z" fill="#1e2e53" stroke="#1e2e53"></path><path d="M317 600L0 607.1L381 600Z" fill="#173f7e" stroke="#173f7e"></path><path d="M381 600L0 607.1L392 600Z" fill="#1b396f" stroke="#1b396f"></path><path d="M392 600L0 607.1L444 600Z" fill="#1b396f" stroke="#1b396f"></path><path d="M444 600L0 607.1L528 600Z" fill="#17181f" stroke="#17181f"></path><path d="M528 600L0 607.1L577 600Z" fill="#17181f" stroke="#17181f"></path><path d="M577 600L0 607.1L581 600Z" fill="#1e2e53" stroke="#1e2e53"></path><path d="M581 600L0 607.1L641 600Z" fill="#1e2e53" stroke="#1e2e53"></path><path d="M641 600L0 607.1L662 600Z" fill="#17181f" stroke="#17181f"></path><path d="M662 600L0 607.1L668 600Z" fill="#1d3461" stroke="#1d3461"></path><path d="M668 600L0 607.1L778 600Z" fill="#1c2338" stroke="#1c2338"></path><path d="M778 600L0 607.1L784 600Z" fill="#1e2e53" stroke="#1e2e53"></path><path d="M784 600L0 607.1L897 600Z" fill="#0f458d" stroke="#0f458d"></path><path d="M897 600L0 607.1L900 600Z" fill="#1e2e53" stroke="#1e2e53"></path><path d="M109 -6.1L0 0L52 0Z" fill="#0f458d" stroke="#0f458d"></path><path d="M52 0L0 0L48 20.9Z" fill="#0f458d" stroke="#0f458d"></path><path d="M0 63.9L0 0L-7 246.1Z" fill="#173f7e" stroke="#173f7e"></path><path d="M164 -10.1L0 0L109 -6.1Z" fill="#1a1e2b" stroke="#1a1e2b"></path></g></svg>